<svg xmlns="http://www.w3.org/2000/svg" viewBox="0 0 615.67 5.2"><defs><style>.cls-1{fill:#2d1536;}</style></defs><title>divider_long</title><g id="Layer_2" data-name="Layer 2"><g id="Layer_1-2" data-name="Layer 1"><rect class="cls-1" x="610.99" y="2.23" width="5.68" height="0.75" transform="translate(283.79 520.16) rotate(-57.72)"/><rect class="cls-1" x="604.99" y="2.23" width="5.68" height="0.75" transform="translate(281 515.09) rotate(-57.72)"/><rect class="cls-1" x="598.99" y="2.23" width="5.68" height="0.75" transform="translate(278.2 510.02) rotate(-57.72)"/><rect class="cls-1" x="592.99" y="2.23" width="5.68" height="0.75" transform="translate(275.41 504.95) rotate(-57.72)"/><rect class="cls-1" x="586.99" y="2.23" width="5.68" height="0.75" transform="translate(272.61 499.87) rotate(-57.72)"/><rect class="cls-1" x="580.99" y="2.23" width="5.68" height="0.75" transform="translate(269.81 494.8) rotate(-57.72)"/><rect class="cls-1" x="574.99" y="2.23" width="5.68" height="0.75" transform="translate(267.02 489.73) rotate(-57.72)"/><rect class="cls-1" x="568.99" y="2.23" width="5.68" height="0.75" transform="translate(264.22 484.66) rotate(-57.72)"/><rect class="cls-1" x="562.99" y="2.23" width="5.68" height="0.75" transform="translate(261.43 479.58) rotate(-57.72)"/><rect class="cls-1" x="556.99" y="2.23" width="5.68" height="0.75" transform="translate(258.63 474.51) rotate(-57.72)"/><rect class="cls-1" x="550.99" y="2.23" width="5.68" height="0.75" transform="translate(255.84 469.44) rotate(-57.72)"/><rect class="cls-1" x="544.99" y="2.23" width="5.68" height="0.75" transform="translate(253.04 464.37) rotate(-57.72)"/><rect class="cls-1" x="538.99" y="2.23" width="5.68" height="0.75" transform="translate(250.25 459.29) rotate(-57.72)"/><rect class="cls-1" x="532.99" y="2.23" width="5.68" height="0.75" transform="translate(247.45 454.22) rotate(-57.72)"/><rect class="cls-1" x="526.99" y="2.23" width="5.68" height="0.75" transform="translate(244.66 449.15) rotate(-57.72)"/><rect class="cls-1" x="520.99" y="2.23" width="5.68" height="0.75" transform="translate(241.86 444.08) rotate(-57.72)"/><rect class="cls-1" x="514.99" y="2.23" width="5.68" height="0.75" transform="translate(239.06 439) rotate(-57.72)"/><rect class="cls-1" x="508.99" y="2.23" width="5.68" height="0.75" transform="translate(236.27 433.93) rotate(-57.72)"/><rect class="cls-1" x="502.99" y="2.23" width="5.68" height="0.75" transform="translate(233.47 428.86) rotate(-57.72)"/><rect class="cls-1" x="496.99" y="2.23" width="5.68" height="0.75" transform="translate(230.68 423.79) rotate(-57.72)"/><rect class="cls-1" x="490.99" y="2.23" width="5.68" height="0.75" transform="translate(227.88 418.71) rotate(-57.72)"/><rect class="cls-1" x="484.99" y="2.23" width="5.68" height="0.75" transform="translate(225.09 413.64) rotate(-57.72)"/><rect class="cls-1" x="478.99" y="2.23" width="5.68" height="0.75" transform="translate(222.29 408.57) rotate(-57.72)"/><rect class="cls-1" x="472.99" y="2.23" width="5.68" height="0.75" transform="translate(219.5 403.49) rotate(-57.72)"/><rect class="cls-1" x="466.99" y="2.23" width="5.68" height="0.75" transform="translate(216.7 398.42) rotate(-57.72)"/><rect class="cls-1" x="460.99" y="2.23" width="5.68" height="0.75" transform="translate(213.91 393.35) rotate(-57.72)"/><rect class="cls-1" x="454.99" y="2.23" width="5.68" height="0.75" transform="translate(211.11 388.28) rotate(-57.72)"/><rect class="cls-1" x="448.99" y="2.23" width="5.68" height="0.75" transform="translate(208.31 383.2) rotate(-57.72)"/><rect class="cls-1" x="442.99" y="2.23" width="5.68" height="0.75" transform="translate(205.52 378.13) rotate(-57.72)"/><rect class="cls-1" x="436.99" y="2.23" width="5.68" height="0.75" transform="translate(202.72 373.06) rotate(-57.72)"/><rect class="cls-1" x="430.99" y="2.23" width="5.68" height="0.75" transform="translate(199.93 367.99) rotate(-57.72)"/><rect class="cls-1" x="424.99" y="2.23" width="5.68" height="0.75" transform="translate(197.13 362.91) rotate(-57.72)"/><rect class="cls-1" x="418.99" y="2.23" width="5.68" height="0.75" transform="translate(194.34 357.84) rotate(-57.72)"/><rect class="cls-1" x="412.99" y="2.23" width="5.68" height="0.75" transform="translate(191.54 352.77) rotate(-57.72)"/><rect class="cls-1" x="406.99" y="2.23" width="5.68" height="0.75" transform="translate(188.75 347.7) rotate(-57.72)"/><rect class="cls-1" x="400.99" y="2.23" width="5.68" height="0.75" transform="translate(185.95 342.62) rotate(-57.72)"/><rect class="cls-1" x="394.99" y="2.23" width="5.68" height="0.75" transform="translate(183.16 337.55) rotate(-57.72)"/><rect class="cls-1" x="388.99" y="2.23" width="5.68" height="0.75" transform="translate(180.36 332.48) rotate(-57.72)"/><rect class="cls-1" x="382.99" y="2.23" width="5.68" height="0.75" transform="translate(177.56 327.41) rotate(-57.72)"/><rect class="cls-1" x="376.99" y="2.23" width="5.68" height="0.75" transform="translate(174.77 322.33) rotate(-57.72)"/><rect class="cls-1" x="370.99" y="2.23" width="5.68" height="0.75" transform="translate(171.97 317.26) rotate(-57.72)"/><rect class="cls-1" x="364.99" y="2.23" width="5.68" height="0.75" transform="translate(169.18 312.19) rotate(-57.72)"/><rect class="cls-1" x="358.99" y="2.23" width="5.68" height="0.75" transform="translate(166.38 307.12) rotate(-57.72)"/><rect class="cls-1" x="352.99" y="2.23" width="5.68" height="0.75" transform="translate(163.59 302.04) rotate(-57.72)"/><rect class="cls-1" x="346.99" y="2.23" width="5.68" height="0.75" transform="translate(160.79 296.97) rotate(-57.72)"/><rect class="cls-1" x="340.99" y="2.23" width="5.68" height="0.75" transform="translate(158 291.9) rotate(-57.72)"/><rect class="cls-1" x="334.99" y="2.23" width="5.68" height="0.75" transform="translate(155.2 286.83) rotate(-57.72)"/><rect class="cls-1" x="328.99" y="2.23" width="5.68" height="0.75" transform="translate(152.41 281.75) rotate(-57.72)"/><rect class="cls-1" x="322.99" y="2.23" width="5.68" height="0.75" transform="translate(149.61 276.68) rotate(-57.72)"/><rect class="cls-1" x="316.99" y="2.23" width="5.68" height="0.75" transform="translate(146.81 271.61) rotate(-57.72)"/><rect class="cls-1" x="310.99" y="2.23" width="5.68" height="0.75" transform="translate(144.02 266.54) rotate(-57.72)"/><rect class="cls-1" x="304.99" y="2.23" width="5.68" height="0.75" transform="translate(141.22 261.46) rotate(-57.72)"/><rect class="cls-1" x="298.99" y="2.23" width="5.68" height="0.75" transform="translate(138.43 256.39) rotate(-57.72)"/><rect class="cls-1" x="292.99" y="2.23" width="5.68" height="0.75" transform="translate(135.63 251.32) rotate(-57.72)"/><rect class="cls-1" x="286.99" y="2.23" width="5.68" height="0.75" transform="translate(132.84 246.25) rotate(-57.72)"/><rect class="cls-1" x="280.99" y="2.23" width="5.68" height="0.75" transform="translate(130.04 241.17) rotate(-57.72)"/><rect class="cls-1" x="274.99" y="2.23" width="5.68" height="0.75" transform="translate(127.25 236.1) rotate(-57.72)"/><rect class="cls-1" x="268.99" y="2.23" width="5.68" height="0.75" transform="translate(124.45 231.03) rotate(-57.72)"/><rect class="cls-1" x="262.99" y="2.23" width="5.68" height="0.75" transform="translate(121.66 225.96) rotate(-57.72)"/><rect class="cls-1" x="256.99" y="2.23" width="5.68" height="0.75" transform="translate(118.86 220.88) rotate(-57.72)"/><rect class="cls-1" x="250.99" y="2.23" width="5.68" height="0.75" transform="translate(116.06 215.81) rotate(-57.72)"/><rect class="cls-1" x="244.99" y="2.23" width="5.68" height="0.75" transform="translate(113.27 210.74) rotate(-57.72)"/><rect class="cls-1" x="238.99" y="2.23" width="5.68" height="0.75" transform="translate(110.47 205.66) rotate(-57.72)"/><rect class="cls-1" x="232.99" y="2.23" width="5.68" height="0.75" transform="translate(107.68 200.59) rotate(-57.72)"/><rect class="cls-1" x="226.99" y="2.23" width="5.68" height="0.75" transform="translate(104.88 195.52) rotate(-57.72)"/><rect class="cls-1" x="220.99" y="2.23" width="5.68" height="0.75" transform="translate(102.09 190.45) rotate(-57.72)"/><rect class="cls-1" x="214.99" y="2.23" width="5.68" height="0.75" transform="translate(99.29 185.37) rotate(-57.72)"/><rect class="cls-1" x="208.99" y="2.23" width="5.68" height="0.75" transform="translate(96.5 180.3) rotate(-57.72)"/><rect class="cls-1" x="202.99" y="2.23" width="5.68" height="0.75" transform="translate(93.7 175.23) rotate(-57.72)"/><rect class="cls-1" x="196.99" y="2.23" width="5.68" height="0.75" transform="translate(90.91 170.16) rotate(-57.72)"/><rect class="cls-1" x="190.99" y="2.23" width="5.68" height="0.75" transform="translate(88.11 165.08) rotate(-57.72)"/><rect class="cls-1" x="184.99" y="2.23" width="5.68" height="0.75" transform="translate(85.31 160.01) rotate(-57.72)"/><rect class="cls-1" x="178.99" y="2.23" width="5.68" height="0.75" transform="translate(82.52 154.94) rotate(-57.72)"/><rect class="cls-1" x="172.99" y="2.23" width="5.68" height="0.75" transform="translate(79.72 149.87) rotate(-57.72)"/><rect class="cls-1" x="166.99" y="2.23" width="5.68" height="0.75" transform="translate(76.93 144.79) rotate(-57.72)"/><rect class="cls-1" x="160.99" y="2.23" width="5.68" height="0.75" transform="translate(74.13 139.72) rotate(-57.72)"/><rect class="cls-1" x="154.99" y="2.23" width="5.68" height="0.75" transform="translate(71.34 134.65) rotate(-57.72)"/><rect class="cls-1" x="148.99" y="2.23" width="5.68" height="0.75" transform="translate(68.54 129.58) rotate(-57.72)"/><rect class="cls-1" x="142.99" y="2.23" width="5.68" height="0.75" transform="translate(65.75 124.5) rotate(-57.72)"/><rect class="cls-1" x="136.99" y="2.23" width="5.68" height="0.75" transform="translate(62.95 119.43) rotate(-57.72)"/><rect class="cls-1" x="130.99" y="2.23" width="5.68" height="0.75" transform="translate(60.16 114.36) rotate(-57.72)"/><rect class="cls-1" x="124.99" y="2.23" width="5.68" height="0.75" transform="translate(57.36 109.29) rotate(-57.72)"/><rect class="cls-1" x="118.99" y="2.23" width="5.68" height="0.75" transform="translate(54.56 104.21) rotate(-57.72)"/><rect class="cls-1" x="112.99" y="2.23" width="5.68" height="0.75" transform="translate(51.77 99.14) rotate(-57.72)"/><rect class="cls-1" x="106.99" y="2.23" width="5.68" height="0.75" transform="translate(48.97 94.07) rotate(-57.72)"/><rect class="cls-1" x="100.99" y="2.23" width="5.68" height="0.75" transform="translate(46.18 89) rotate(-57.72)"/><rect class="cls-1" x="94.99" y="2.23" width="5.68" height="0.75" transform="translate(43.38 83.92) rotate(-57.72)"/><rect class="cls-1" x="88.99" y="2.23" width="5.68" height="0.75" transform="translate(40.59 78.85) rotate(-57.72)"/><rect class="cls-1" x="82.99" y="2.23" width="5.68" height="0.75" transform="translate(37.79 73.78) rotate(-57.72)"/><rect class="cls-1" x="76.99" y="2.23" width="5.68" height="0.75" transform="translate(35 68.71) rotate(-57.72)"/><rect class="cls-1" x="70.99" y="2.23" width="5.68" height="0.75" transform="translate(32.2 63.63) rotate(-57.72)"/><rect class="cls-1" x="64.99" y="2.23" width="5.68" height="0.75" transform="translate(29.41 58.56) rotate(-57.72)"/><rect class="cls-1" x="58.99" y="2.23" width="5.68" height="0.75" transform="translate(26.61 53.49) rotate(-57.72)"/><rect class="cls-1" x="52.99" y="2.23" width="5.68" height="0.75" transform="translate(23.81 48.42) rotate(-57.72)"/><rect class="cls-1" x="46.99" y="2.23" width="5.68" height="0.75" transform="translate(21.02 43.34) rotate(-57.72)"/><rect class="cls-1" x="40.99" y="2.23" width="5.68" height="0.75" transform="translate(18.22 38.27) rotate(-57.72)"/><rect class="cls-1" x="34.99" y="2.23" width="5.68" height="0.75" transform="translate(15.43 33.2) rotate(-57.72)"/><rect class="cls-1" x="28.99" y="2.23" width="5.68" height="0.75" transform="translate(12.63 28.13) rotate(-57.72)"/><rect class="cls-1" x="22.99" y="2.23" width="5.68" height="0.75" transform="translate(9.84 23.05) rotate(-57.72)"/><rect class="cls-1" x="16.99" y="2.23" width="5.68" height="0.75" transform="translate(7.04 17.98) rotate(-57.72)"/><rect class="cls-1" x="10.99" y="2.23" width="5.68" height="0.75" transform="translate(4.25 12.91) rotate(-57.72)"/><rect class="cls-1" x="4.99" y="2.23" width="5.68" height="0.75" transform="translate(1.45 7.83) rotate(-57.72)"/><rect class="cls-1" x="-1.01" y="2.23" width="5.68" height="0.75" transform="translate(-1.34 2.76) rotate(-57.72)"/></g></g></svg>